<svg xmlns = "http://www.w3.org/2000/svg" width = "1000" height = "1000">
<g>
<polygon points = "568.614, 518.143 570.828, 524.957 571.577, 532.083 570.828, 539.208 568.614, 546.023 565.031, 552.228 560.237, 557.552 554.440, 561.764 547.895, 564.678 540.886, 566.168 533.722, 566.168 526.713, 564.678 520.168, 561.764 514.371, 557.552 509.577, 552.228 505.994, 546.023 503.780, 539.208 503.031, 532.083 503.780, 524.957 505.550, 519.511 566.137, 513.853 "
fill = "blue" stroke = "black"/>
</g>
<g>
<polygon points = "309.829, 826.480 308.335, 831.077 305.918, 835.263 302.684, 838.855 298.773, 841.696 294.357, 843.662 289.629, 844.667 284.795, 844.667 280.067, 843.662 275.652, 841.696 271.741, 838.855 268.507, 835.263 266.090, 831.077 264.596, 826.480 264.091, 821.672 264.596, 816.865 266.090, 812.268 268.507, 808.082 271.741, 804.490 275.652, 801.648 280.067, 799.682 284.795, 798.677 289.629, 798.677 294.357, 799.682 298.773, 801.648 302.684, 804.490 305.918, 808.082 308.335, 812.268 309.829, 816.865 310.334, 821.672 "
fill = "blue" stroke = "black"/>
</g>
<g>
<polygon points = "158.373, 384.070 167.477, 386.005 175.979, 389.791 183.509, 395.261 189.737, 402.178 194.390, 410.238 197.266, 419.089 198.239, 428.345 197.266, 437.601 194.390, 446.453 189.737, 454.513 183.509, 461.429 175.979, 466.900 167.477, 470.685 158.373, 472.620 158.317, 472.620 118.084, 401.754 123.931, 395.261 128.230, 392.138 152.007, 384.070 "
fill = "blue" stroke = "black"/>
</g>
<g>
<polygon points = "831.882, 973.212 829.935, 979.203 826.785, 984.659 822.570, 989.341 817.473, 993.044 811.718, 995.606 805.556, 996.916 799.256, 996.916 793.094, 995.606 787.338, 993.044 782.242, 989.341 778.026, 984.659 774.876, 979.203 772.929, 973.212 772.271, 966.946 772.929, 960.681 774.876, 954.689 778.026, 949.233 782.242, 944.552 787.338, 940.849 793.094, 938.286 799.256, 936.977 805.556, 936.977 811.718, 938.286 817.473, 940.849 822.570, 944.552 826.785, 949.233 829.935, 954.689 831.882, 960.681 832.540, 966.946 "
fill = "blue" stroke = "black"/>
</g>
<g>
<polygon points = "503.240, 515.415 501.033, 508.623 500.286, 501.520 501.033, 494.417 503.240, 487.624 506.811, 481.439 511.590, 476.131 517.368, 471.933 523.893, 469.028 530.879, 467.543 538.021, 467.543 545.007, 469.028 551.532, 471.933 557.310, 476.131 562.089, 481.439 565.660, 487.624 567.867, 494.417 568.613, 501.520 567.867, 508.623 566.168, 513.850 505.602, 519.506 "
fill = "blue" stroke = "black"/>
</g>
<g>
<polygon points = "982.350, 257.444 980.567, 262.930 977.683, 267.925 973.823, 272.212 969.157, 275.603 963.887, 277.949 958.245, 279.148 952.477, 279.148 946.834, 277.949 941.565, 275.603 936.898, 272.212 933.039, 267.925 930.154, 262.930 928.372, 257.444 927.769, 251.707 928.372, 245.971 930.154, 240.485 933.039, 235.489 936.898, 231.203 941.565, 227.812 946.834, 225.466 952.477, 224.267 958.245, 224.267 963.887, 225.466 969.157, 227.812 973.823, 231.203 977.683, 235.489 980.567, 240.485 982.350, 245.971 982.953, 251.707 "
fill = "blue" stroke = "black"/>
</g>
<g>
<polygon points = "533.600, 145.608 526.501, 140.451 520.631, 133.931 516.244, 126.333 513.532, 117.988 512.615, 109.263 513.532, 100.537 516.244, 92.192 520.631, 84.594 526.501, 78.074 533.600, 72.917 541.615, 69.348 550.197, 67.524 558.971, 67.524 561.458, 68.052 585.568, 81.296 588.537, 84.594 592.924, 92.192 595.635, 100.537 596.467, 108.445 540.643, 148.744 "
fill = "blue" stroke = "black"/>
</g>
<g>
<polygon points = "620.257, 114.267 629.442, 114.267 638.426, 116.177 646.816, 119.912 654.247, 125.311 660.393, 132.137 664.985, 140.091 667.823, 148.826 668.783, 157.960 667.823, 167.095 664.985, 175.830 660.393, 183.784 656.909, 187.653 607.121, 183.545 613.491, 115.705 "
fill = "blue" stroke = "black"/>
</g>
<g>
<polygon points = "200.024, 795.805 197.366, 803.988 193.064, 811.440 187.306, 817.834 180.346, 822.891 172.486, 826.390 164.070, 828.179 155.466, 828.179 153.682, 827.800 128.064, 761.289 132.229, 756.663 139.189, 751.606 147.050, 748.106 155.466, 746.318 164.070, 746.318 172.486, 748.106 180.346, 751.606 187.306, 756.663 193.064, 763.057 197.366, 770.509 200.024, 778.692 200.924, 787.248 "
fill = "blue" stroke = "black"/>
</g>
<g>
<polygon points = "728.121, 872.423 727.236, 875.149 725.802, 877.632 723.884, 879.762 721.565, 881.447 718.947, 882.613 716.143, 883.209 713.277, 883.209 710.473, 882.613 707.854, 881.447 705.536, 879.762 703.618, 877.632 702.184, 875.149 701.299, 872.423 700.999, 869.573 701.299, 866.722 702.184, 863.996 703.618, 861.514 705.536, 859.384 707.854, 857.699 710.473, 856.533 713.277, 855.937 716.143, 855.937 718.947, 856.533 721.565, 857.699 723.884, 859.384 725.802, 861.514 727.236, 863.996 728.121, 866.722 728.421, 869.573 "
fill = "blue" stroke = "black"/>
</g>
<g>
<polygon points = "121.853, 731.972 119.815, 738.245 116.517, 743.958 112.103, 748.860 106.767, 752.737 100.741, 755.420 94.288, 756.792 87.692, 756.792 81.240, 755.420 75.214, 752.737 69.878, 748.860 65.464, 743.958 62.166, 738.245 60.127, 731.972 59.438, 725.412 60.127, 718.852 62.166, 712.578 65.464, 706.866 69.878, 701.964 75.214, 698.087 81.240, 695.404 87.692, 694.032 94.288, 694.032 100.741, 695.404 106.767, 698.087 112.103, 701.964 116.517, 706.866 119.815, 712.578 121.853, 718.852 122.543, 725.412 "
fill = "blue" stroke = "black"/>
</g>
<g>
<polygon points = "7.082, 546.865 15.068, 548.563 22.527, 551.884 29.133, 556.683 34.596, 562.750 38.679, 569.821 41.202, 577.587 42.055, 585.707 41.202, 593.827 38.679, 601.592 34.596, 608.663 29.133, 614.731 22.527, 619.530 15.068, 622.851 7.082, 624.548 0.000, 624.548 0.000, 546.865 "
fill = "blue" stroke = "black"/>
</g>
<g>
<polygon points = "3.589, 264.317 9.475, 260.041 16.122, 257.081 23.238, 255.569 30.514, 255.569 37.631, 257.081 44.277, 260.041 50.164, 264.317 55.032, 269.724 58.670, 276.025 60.918, 282.945 61.679, 290.180 60.918, 297.416 58.670, 304.336 55.032, 310.637 50.164, 316.044 44.277, 320.320 37.631, 323.279 30.514, 324.792 23.238, 324.792 16.122, 323.279 9.475, 320.320 3.589, 316.044 0.000, 312.058 0.000, 268.303 "
fill = "blue" stroke = "black"/>
</g>
<g>
<polygon points = "952.113, 763.111 951.174, 766.001 949.655, 768.632 947.622, 770.890 945.164, 772.676 942.388, 773.912 939.416, 774.543 936.378, 774.543 933.406, 773.912 930.630, 772.676 928.172, 770.890 926.139, 768.632 924.620, 766.001 923.681, 763.111 923.364, 760.089 923.681, 757.067 924.620, 754.178 926.139, 751.546 928.172, 749.289 930.630, 747.503 933.406, 746.267 936.378, 745.635 939.416, 745.635 942.388, 746.267 945.164, 747.503 947.622, 749.289 949.655, 751.546 951.174, 754.178 952.113, 757.067 952.431, 760.089 "
fill = "blue" stroke = "black"/>
</g>
<g>
<polygon points = "205.739, 687.741 204.099, 692.791 201.444, 697.389 197.891, 701.335 193.595, 704.456 188.744, 706.616 183.551, 707.720 178.241, 707.720 173.047, 706.616 168.197, 704.456 163.901, 701.335 160.348, 697.389 157.693, 692.791 156.052, 687.741 155.497, 682.460 156.052, 677.180 157.693, 672.130 160.348, 667.532 163.901, 663.586 168.197, 660.465 173.047, 658.305 178.241, 657.201 183.551, 657.201 188.744, 658.305 193.595, 660.465 197.891, 663.586 201.444, 667.532 204.099, 672.130 205.739, 677.180 206.294, 682.460 "
fill = "blue" stroke = "black"/>
</g>
<g>
<polygon points = "902.432, 351.224 901.412, 354.362 899.762, 357.220 897.554, 359.673 894.884, 361.613 891.869, 362.955 888.641, 363.641 885.341, 363.641 882.112, 362.955 879.097, 361.613 876.427, 359.673 874.219, 357.220 872.569, 354.362 871.549, 351.224 871.204, 347.941 871.549, 344.659 872.569, 341.520 874.219, 338.662 876.427, 336.210 879.097, 334.270 882.112, 332.927 885.341, 332.241 888.641, 332.241 891.869, 332.927 894.884, 334.270 897.554, 336.210 899.762, 338.662 901.412, 341.520 902.432, 344.659 902.777, 347.941 "
fill = "blue" stroke = "black"/>
</g>
<g>
<polygon points = "118.600, 304.524 122.231, 298.235 127.091, 292.838 132.966, 288.569 139.600, 285.616 146.704, 284.106 153.966, 284.106 161.070, 285.616 167.704, 288.569 173.580, 292.838 178.439, 298.235 182.070, 304.524 184.314, 311.431 185.073, 318.654 184.314, 325.876 182.070, 332.783 178.439, 339.072 173.580, 344.469 170.188, 346.933 118.105, 306.048 "
fill = "blue" stroke = "black"/>
</g>
<g>
<polygon points = "390.281, 613.224 389.986, 614.132 389.509, 614.959 388.870, 615.668 388.098, 616.229 387.226, 616.617 386.292, 616.816 385.337, 616.816 384.404, 616.617 383.532, 616.229 382.759, 615.668 382.120, 614.959 381.643, 614.132 381.348, 613.224 381.248, 612.275 381.348, 611.325 381.643, 610.417 382.120, 609.591 382.759, 608.881 383.532, 608.320 384.404, 607.932 385.337, 607.733 386.292, 607.733 387.226, 607.932 388.098, 608.320 388.870, 608.881 389.509, 609.591 389.986, 610.417 390.281, 611.325 390.381, 612.275 "
fill = "blue" stroke = "black"/>
</g>
<g>
<polygon points = "529.596, 865.759 526.180, 871.676 521.609, 876.753 516.081, 880.769 509.840, 883.548 503.157, 884.968 496.325, 884.968 489.642, 883.548 483.401, 880.769 477.874, 876.753 473.302, 871.676 469.886, 865.759 467.775, 859.262 467.061, 852.467 467.775, 845.672 469.886, 839.175 473.302, 833.258 477.874, 828.181 483.401, 824.165 489.642, 821.386 496.325, 819.966 503.157, 819.966 509.840, 821.386 516.081, 824.165 521.609, 828.181 526.180, 833.258 529.518, 839.040 529.804, 865.119 "
fill = "blue" stroke = "black"/>
</g>
<g>
<polygon points = "601.703, 109.747 610.675, 113.742 613.483, 115.783 607.121, 183.545 585.408, 201.143 582.276, 201.143 572.670, 199.101 563.699, 195.107 555.753, 189.334 549.182, 182.036 544.272, 173.531 541.237, 164.191 540.211, 154.424 540.821, 148.616 596.264, 108.591 "
fill = "blue" stroke = "black"/>
</g>
<g>
<polygon points = "559.977, 66.483 556.084, 59.740 553.678, 52.335 552.864, 44.591 553.678, 36.848 556.084, 29.443 559.977, 22.700 565.187, 16.913 571.486, 12.337 578.600, 9.170 586.216, 7.551 594.002, 7.551 601.618, 9.170 608.731, 12.337 615.030, 16.913 620.240, 22.700 624.133, 29.443 626.539, 36.848 627.353, 44.591 626.539, 52.335 624.133, 59.740 620.240, 66.483 615.030, 72.269 608.731, 76.846 601.618, 80.013 594.002, 81.631 586.216, 81.631 586.154, 81.618 561.325, 67.979 "
fill = "blue" stroke = "black"/>
</g>
<g>
<polygon points = "532.227, 834.470 536.363, 829.877 541.363, 826.243 547.010, 823.729 553.056, 822.444 559.237, 822.444 565.283, 823.729 570.929, 826.243 575.930, 829.877 580.066, 834.470 583.156, 839.823 585.066, 845.701 585.712, 851.848 585.066, 857.996 583.156, 863.874 580.066, 869.227 575.930, 873.820 570.929, 877.453 565.283, 879.967 559.237, 881.253 553.056, 881.253 547.010, 879.967 541.363, 877.453 536.363, 873.820 532.227, 869.227 529.803, 865.029 529.519, 839.159 "
fill = "blue" stroke = "black"/>
</g>
<g>
<polygon points = "993.739, 623.346 986.835, 624.814 979.776, 624.814 972.871, 623.346 966.422, 620.475 960.712, 616.326 955.988, 611.080 952.459, 604.967 950.278, 598.254 949.540, 591.233 950.278, 584.213 952.459, 577.500 955.988, 571.387 960.712, 566.141 966.422, 561.992 972.871, 559.121 979.776, 557.653 986.835, 557.653 993.739, 559.121 1000.000, 561.908 1000.000, 620.559 "
fill = "blue" stroke = "black"/>
</g>
<g>
<polygon points = "154.487, 474.087 146.105, 475.869 137.535, 475.869 129.152, 474.087 121.324, 470.602 114.391, 465.565 108.656, 459.196 104.371, 451.774 101.723, 443.624 100.827, 435.101 101.723, 426.579 104.371, 418.428 108.656, 411.007 114.391, 404.638 118.165, 401.896 158.209, 472.430 "
fill = "blue" stroke = "black"/>
</g>
<g>
<polygon points = "212.667, 503.098 215.273, 495.077 219.490, 487.773 225.133, 481.506 231.956, 476.549 239.660, 473.119 247.910, 471.365 256.343, 471.365 264.593, 473.119 272.297, 476.549 279.120, 481.506 284.763, 487.773 288.980, 495.077 291.586, 503.098 292.468, 511.485 291.586, 519.873 288.980, 527.894 284.825, 535.090 212.018, 509.272 "
fill = "blue" stroke = "black"/>
</g>
<g>
<polygon points = "494.929, 45.473 492.888, 51.753 489.586, 57.472 485.168, 62.380 479.825, 66.262 473.792, 68.948 467.332, 70.321 460.729, 70.321 454.269, 68.948 448.236, 66.262 442.893, 62.380 438.475, 57.472 435.173, 51.753 433.132, 45.473 432.442, 38.905 433.132, 32.337 435.173, 26.057 438.475, 20.337 442.893, 15.430 448.236, 11.548 454.269, 8.862 460.729, 7.489 467.332, 7.489 473.792, 8.862 479.825, 11.548 485.168, 15.430 489.586, 20.337 492.888, 26.057 494.929, 32.337 495.619, 38.905 "
fill = "blue" stroke = "black"/>
</g>
<g>
<polygon points = "152.258, 829.371 145.629, 834.188 138.143, 837.521 130.128, 839.225 121.934, 839.225 113.918, 837.521 106.433, 834.188 99.803, 829.371 94.320, 823.282 90.223, 816.185 87.691, 808.392 86.834, 800.243 87.691, 792.093 90.223, 784.300 94.320, 777.204 99.803, 771.114 106.433, 766.298 113.918, 762.965 121.934, 761.261 128.053, 761.261 153.679, 827.793 "
fill = "blue" stroke = "black"/>
</g>
<g>
<polygon points = "325.585, 372.077 325.167, 373.365 324.490, 374.538 323.584, 375.544 322.488, 376.340 321.251, 376.891 319.927, 377.172 318.573, 377.172 317.248, 376.891 316.011, 376.340 314.916, 375.544 314.010, 374.538 313.333, 373.365 312.914, 372.077 312.773, 370.731 312.914, 369.384 313.333, 368.096 314.010, 366.924 314.916, 365.918 316.011, 365.122 317.248, 364.571 318.573, 364.290 319.927, 364.290 321.251, 364.571 322.488, 365.122 323.584, 365.918 324.490, 366.924 325.167, 368.096 325.585, 369.384 325.726, 370.731 "
fill = "blue" stroke = "black"/>
</g>
<g>
<polygon points = "122.148, 392.169 113.220, 390.271 104.881, 386.558 97.497, 381.193 91.389, 374.410 86.825, 366.505 84.005, 357.824 83.051, 348.746 84.005, 339.669 86.825, 330.988 91.389, 323.083 97.497, 316.299 104.881, 310.934 113.220, 307.222 118.241, 306.154 170.183, 346.929 170.374, 348.746 169.420, 357.824 166.599, 366.505 162.035, 374.410 155.927, 381.193 151.933, 384.095 128.139, 392.169 "
fill = "blue" stroke = "black"/>
</g>
<g>
<polygon points = "657.588, 204.569 655.213, 211.877 651.371, 218.532 646.229, 224.243 640.012, 228.759 632.992, 231.885 625.476, 233.482 617.792, 233.482 610.276, 231.885 603.256, 228.759 597.039, 224.243 591.897, 218.532 588.055, 211.877 585.680, 204.569 585.327, 201.208 607.121, 183.545 657.061, 187.665 657.588, 189.285 658.391, 196.927 "
fill = "blue" stroke = "black"/>
</g>
<g>
<polygon points = "283.242, 539.329 279.191, 546.345 273.771, 552.365 267.217, 557.127 259.816, 560.422 251.892, 562.106 243.791, 562.106 235.867, 560.422 228.467, 557.127 221.913, 552.365 216.492, 546.345 212.442, 539.329 209.938, 531.625 209.092, 523.568 209.938, 515.512 211.971, 509.255 284.640, 535.024 "
fill = "blue" stroke = "black"/>
</g>
<g>
<polygon points = "413.082, 801.802 411.512, 806.633 408.972, 811.032 405.573, 814.807 401.464, 817.793 396.823, 819.859 391.854, 820.915 386.774, 820.915 381.805, 819.859 377.165, 817.793 373.055, 814.807 369.656, 811.032 367.116, 806.633 365.546, 801.802 365.015, 796.750 365.546, 791.698 367.116, 786.866 369.656, 782.467 373.055, 778.692 377.165, 775.706 381.805, 773.640 386.774, 772.584 391.854, 772.584 396.823, 773.640 401.464, 775.706 405.573, 778.692 408.972, 782.467 411.512, 786.866 413.082, 791.698 413.613, 796.750 "
fill = "blue" stroke = "black"/>
</g>
</svg>
